<svg xmlns="http://www.w3.org/2000/svg" version="1.1" xmlns:xlink="http://www.w3.org/1999/xlink" xmlns:svgjs="http://svgjs.dev/svgjs" width="1000" height="1125" viewBox="0 0 1000 1125"><g transform="matrix(1,0,0,1,0,0)"><svg viewBox="0 0 320 360" data-background-color="#282634" preserveAspectRatio="xMidYMid meet" height="1125" width="1000" xmlns="http://www.w3.org/2000/svg" xmlns:xlink="http://www.w3.org/1999/xlink"><g id="tight-bounds" transform="matrix(1,0,0,1,0,0)"><svg viewBox="0 0 320 360" height="360" width="320"><g><svg></svg></g><g><svg viewBox="0 0 320 360" height="360" width="320"><g><path xmlns="http://www.w3.org/2000/svg" d="M165.217 303.356c-1.404-1.755-2.809-0.702-2.808-1.755-8.426 2.106-24.223-3.511-30.894-2.809 1.404-2.106-2.106-1.755-2.106-3.159-1.404 2.106-2.809 0-4.915 0.702-2.106-5.266-10.532-1.404-11.585-8.075-4.915 0-6.67-2.809-11.586-5.617 0.351-0.351 0.702-0.351 1.054-0.702-2.457-0.351-2.457-1.755-4.564-1.755l0.702-1.405c-3.862-0.702-5.266-6.67-10.883-8.776-1.755-0.351-5.617-6.319-7.723-7.724-1.053-0.702-2.809-0.702-0.352-1.053-0.351-0.351-0.351-1.053 0-1.404-2.457-0.702-2.809-2.809-5.968-3.862-0.351-1.053 0.702-1.755 0-2.457-0.702-0.351-1.755 0.351-2.457 0-0.351 6.319 6.67 7.021 8.777 12.287-0.702-0.702-1.755-2.809-2.458-1.404-0.351 1.053 2.809 4.915 2.809 2.808-1.053 0.702-1.404-1.053-0.703-1.404 1.053 1.755 3.16 1.404 3.16 2.809-1.053 1.053-2.457-1.053-2.106 0.702 3.16 1.755 2.809 3.511 4.563 5.968-1.404-1.755-1.755 1.404-3.159 0-0.351-5.266-6.319-4.213-6.319-9.479-0.702-1.755-1.404-0.351-2.458-1.053 1.404-1.404-4.213-6.319-4.213-4.564-1.755-2.106-0.702-2.809-1.053-4.213-1.404-0.351-0.351 1.404-1.404 0.351 1.404-2.457-1.755-5.617-3.862-8.074l1.405-0.702c-2.457-1.404-2.809-4.213-4.564-7.373-2.106 3.16 4.213 10.181 3.159 11.585 0 0.351 2.457 3.16 3.16 4.564 2.809 4.915 4.915 10.883 8.777 13.692-0.702-0.351-0.351-2.457 0.702-1.404 0 1.053-0.702 2.106-0.702 3.159 2.106 2.106 3.862 3.862 5.968 5.968-4.564-2.809-9.128-5.617-12.288-9.83 1.755-0.351 3.511 2.809 4.915 2.458-3.511-2.809-2.457-3.862-3.861-7.372-1.404-1.053 0.351 1.404-1.054 1.755-4.564-4.213-8.075-6.67-10.181-10.532 0.351-0.351 0.702-0.702 0.703-1.404-0.351-0.351-0.351-0.351-0.703-0.702 2.106 2.106 2.809 3.862 5.266 4.212-1.053-1.053 0-1.404-1.404-2.457-0.702-1.404-1.755 0.702-2.457-0.351 0.702-1.053 0-2.457 0-3.511-0.702 0-1.404 0-1.756-1.053-0.702-0.351-1.053 0-1.404 0.702-0.351-0.351-0.351-1.053-0.702-1.404v-0.351c-0.351-0.351-0.702-1.053-1.053-1.405-2.809-7.372-4.564-17.202-8.426-23.521 1.053-4.213-0.702-12.638-1.755-14.745 1.053-1.755 0.351-9.83-0.351-11.234-1.755 0.702 0.351 4.564-1.404 5.617-1.755-7.723 1.053-16.5 0.351-23.521 0.702 0 1.404 0 1.404-0.351-1.053-1.053 0.702-3.16 0.351-5.617 1.404-3.16-3.16 4.564-3.16 7.723-0.351 0.702-1.755 0-1.404 1.756 0 2.457 0.702 7.372-0.702 10.883-0.702 0-0.702-0.702-1.404-0.351-0.351 1.755-0.702 3.862-1.053 5.617-0.351-0.702-0.702-1.755-0.703-2.107-1.755-8.777 0-18.958-0.702-26.33 1.404 0 1.404-2.106 2.458-2.808-0.351 2.809-1.053 6.319 0.702 7.021 1.404-13.692 4.213-28.787 10.532-43.532 4.564-10.883 11.234-21.766 19.308-30.543 0.702 1.053-0.351 3.511 0 4.564 7.021-7.372 11.585-16.149 19.309-21.064 0.351 1.755-3.16 3.16-3.16 4.564 3.16-3.16 4.213-2.106 7.724-3.159 1.053-1.404-1.404 0-1.756-1.405 2.106-1.404 3.511-3.16 4.915-4.212 0 0.351-0.351 0.351-0.351 0.702 3.862-1.053 4.213-3.16 7.022-3.862-0.351-0.351-1.053-0.702-2.107-0.351 0.702-0.351 1.755-1.053 2.809-1.404-0.351 0-0.351 0.351-0.702 0.351 2.106-1.053 0.351 0.351 0.351 1.053 0.351 0 0.702-0.351 0.702-0.351-2.106 1.404-3.511 2.106-4.213 4.564 1.053-0.702 1.404 0 2.809-1.054 1.404-0.702-0.351-1.755 0.702-2.457 1.053 0.702 2.457 0.351 3.51 0.351 0-0.702 0.351-1.404 1.054-1.755 0.351-0.702 0-1.053-0.352-1.053 0.351-0.351 0.702-0.351 1.405-0.703 0 0 0.351 0 0.351 0.351 5.968-2.809 12.638-5.266 18.957-7.372 3.862-0.351 8.777-0.351 10.883-2.808-0.702 0-1.404 0.351-1.755 0 0.351 0 1.053-0.351 1.404-0.351 0.702 0.702 1.755 0 0.702 1.404 0.351 0 0.351 0 0.703-0.351 0 0.351 0 0.351 0.351 0.702 0.351 0 0.702-0.351 1.053-1.053 0.351 0 0.702 0 1.053-0.351l-0.351 0.351c2.809-0.702 5.266-0.351 9.128-1.054 0-0.351 0-0.702 0-1.053 0.702 0 1.053-0.351 1.755-0.351v0.351c1.404-0.702 2.809 0.702 2.808 0 0.351 0 0.351 0 0.703 0 0 0.702-0.351 1.053-0.351 1.405 1.755 0 2.809 0 3.51-1.054-0.351-0.351-0.702-0.351-1.053-0.351 0.702 0 1.404-0.351 2.106-0.702 1.053 0.351 1.404 0.702 1.405 2.107 1.755-3.16 7.372 0.702 9.829 0 1.053 0 0.702-1.404 1.405-2.107 0.351 0 0.702 0 1.053 0 1.755 1.404 4.213 2.809 7.372 3.16-2.809-0.702 0.351-1.053 0.702-1.405-0.702 0-0.702-0.351-0.702-0.702 1.053 0 2.106 0.351 3.16 0.351 0 0.702 0.351 1.053 1.053 1.054 0.702 0 0.702-0.351 0.702-1.054 1.053 0 1.755 0 2.809 0.351-0.351 1.404 1.755 1.755 2.457 2.809-2.809-0.702-5.968-1.755-7.021 0 11.234 2.457 23.521 5.968 35.457 11.936 0 0 0 0 0 0.351h0.352c2.106 1.053 4.213 2.106 6.319 3.16 1.404 0.702 2.457 1.404 3.861 2.457 0 0.351 0 0.702 0.703 0.702h0.351c1.404 1.053 2.809 1.755 4.212 2.809 1.404 2.106 2.809 4.915 5.266 4.213 5.266 8.075 10.883 11.234 15.447 19.659 0.351-1.404 1.404 3.16 3.16 3.511-2.809-0.351 1.755 1.755-1.053 1.404 2.457 2.457 3.16 3.511 3.51 6.319-0.702-1.404-1.053-1.755-1.404-0.351-0.351 2.106 2.457-0.351 3.511 1.756-2.106 0-1.404 1.404-1.054 3.159 1.053-1.053 0.702-2.106 1.756-1.755 1.404 1.404-0.702 1.755-0.351 2.809 1.053-1.404 1.404-0.702 2.808 0-1.755 0.351 1.053 2.809-1.053 1.755 1.404 1.755 1.755 2.809 1.053 4.564-1.404-2.106-0.351-3.511-2.457-3.16 4.213 3.511 2.106 11.585 7.021 12.287-3.16 0.702 0 2.106-1.755 2.458 2.106 0.702 1.053 3.511 3.51 4.213-0.351 1.755-1.053 2.809-1.404 4.563 1.053 1.404 1.404 4.213 3.16 4.564-1.053 1.053-0.351 3.862-1.404 4.915 1.404-0.702 2.106-0.702 3.159 0.702-1.755 1.404-0.351 2.809-1.404 3.16 3.16 8.075-0.702 24.575 1.053 30.894-2.106-1.053-1.404 2.457-2.808 2.457 2.457 1.053 0.351 2.809 1.404 4.564-4.915 2.809 0 10.532-6.67 12.287 0.702 4.915-2.106 7.021-4.213 12.288-0.351-0.351-0.351-0.702-0.702-1.054-0.351 2.457-1.755 2.809-1.054 4.915l-1.404-0.702c0 3.862-5.968 5.968-7.372 11.936-0.351 1.755-5.617 6.319-7.022 8.777-0.702 1.053-0.351 2.809-1.053 0.351-0.351 0.351-1.053 0.351-1.404 0.351-0.351 2.457-2.457 3.16-3.16 6.319-0.702 0.351-1.755-0.702-2.457 0.351 0 0.702 0.702 1.755 0.351 2.458 6.319-0.351 6.319-7.723 11.234-10.181-0.351 1.053-2.457 2.106-1.053 2.808 1.053 0 4.213-3.511 2.457-3.159 1.053 0.702-1.053 1.404-1.404 1.053 1.755-1.404 1.053-3.16 2.458-3.511 1.053 0.702-1.053 2.457 1.053 2.107 1.404-3.16 3.16-3.511 5.266-5.266-1.404 1.404 1.755 1.755 0.351 3.159-5.266 1.053-3.511 7.021-8.777 7.724-1.404 1.053-0.351 1.404-0.702 2.457-1.755-1.053-5.617 4.915-4.213 4.564-1.755 1.755-2.809 1.053-4.212 1.404-0.351 1.404 1.404 0.351 0.702 1.405-2.457-1.053-5.617 2.457-7.724 4.915l-1.053-1.054c-1.053 2.809-3.862 3.16-7.021 5.266 3.511 1.755 9.479-5.617 11.234-4.564 0.351 0 3.16-2.809 4.213-3.861 4.564-3.511 10.181-6.319 12.287-10.181-0.351 0.702-2.457 0.702-1.404-0.351 1.053-0.351 2.106 0.351 3.159 0.351 5.617-7.723 12.638-14.043 17.905-23.17 0.351-0.351 0.702-1.053 1.053-1.756-0.702 2.106-1.755 3.862-2.458 5.968-5.617 3.862-7.723 15.096-14.393 16.851 0.351 3.862-3.16 4.915-4.915 9.479-1.053 1.404-1.755-1.053-2.809 0.702 1.053 4.915-8.777 4.564-8.425 9.128-0.702 0.351-1.755 0.702-2.458 1.404h-0.351c-0.351 0.351-0.351 0.351-0.702 0.702-1.755 1.053-3.16 2.106-4.564 3.16-4.915 2.809-11.585 4.915-16.851 7.723v-0.351c-1.404 0.702-3.16 0.351-2.809 1.756-1.053 0.702-2.106 1.404-3.159 2.106-0.351 0-0.351 0-0.702 0 0 0-0.351-0.351-0.702-0.351-0.702 0-0.702 0-1.054 0.351-4.564 0.351-10.532 2.457-12.287 3.862-1.755-1.053-9.83 0.702-11.234 1.404 0.702 1.053 2.809 0 4.564 0-1.053 0.351-2.106 0.702-2.458 1.404-0.351 0-0.351 0-0.702 0-0.351-1.053-1.404 0-1.755-0.351h0.351c-0.351-1.404-1.404-2.106-3.16-1.755 0 0.702 0 1.053-0.351 1.755 0.702 0 2.809-1.053 2.809 0-0.351 0-0.351 0.351 0 0.351-0.702 0.702-1.755 0.702-2.458 1.054-1.404 0-3.16 0-4.563 0-0.351-0.351-0.702-0.351-1.405-0.703-0.351 0.351-1.053 0.351-1.404 0.703-2.106 0-4.564 0.351-6.319 0.702 0-0.702 0-1.404-0.702-1.405-1.053 1.404-3.16-0.351-5.617 0.352-2.457-0.702 1.404 1.053 4.915 1.755-0.351 0.351-0.702 0.702-1.756 1.053M116.068 308.271c-4.915-4.564-15.096-6.67-16.851-10.181-2.809-0.351-7.021-5.617-10.532-6.319 1.755 0 0.351-1.053 0-1.755-0.702 0.702-1.404 1.053-2.106 1.053 0-2.809-2.809-4.564-5.266-6.319 1.755 1.053 3.16 1.755 5.266 2.106 0-0.702 0-1.404 0.702-1.404 2.457 2.457 5.266 4.915 8.425 7.372 4.213 3.862 25.979 13.692 29.841 15.447 0 0-0.702 1.404-0.351 1.404 1.755 1.053 3.16-1.053 3.511 1.404-5.617 0.702-7.723-3.16-12.639-2.808M277.909 226.824v0.351 0c-0.351 0 0-0.351 0-0.351M136.079 64.281c-0.351 0.351-0.702 0.351-0.702 0.351 0-0.351 0.351-0.351 0.702-0.351M129.409 66.036c0 0.351 0 0.351 0 0 0 0.351 0 0.351 0 0 0 0.351 0 0 0 0M106.238 73.408v0c0.351-0.351 0.351-0.351 0.703-0.351-0.351 0-0.702 0.351-0.703 0.351M162.409 61.823c-0.702 0-1.053 0-1.404-0.351 0.351 0 0.702 0 1.053 0h0.351c0 0 0 0 0 0.351M168.728 62.525c-0.351-0.351-1.404-0.702-2.457-0.702 0-0.351 0.351-0.702 0.351-0.702 0.351 0 0.702 0 1.053 0 0 0 0.351 0 0.351 0.351 0 0 0 0 0-0.351 0.351 0 0.351 0 0.702 0 0.351 0.702 0.702 1.053 0 1.404M180.313 63.579c-1.755 0.351-2.809-0.351-4.564-1.405 1.053 0 2.457 0.351 3.511 0.702 0.351 0 0.702 0.351 1.053 0.703M305.292 113.43c-0.702 0.351-1.053 0.351-1.755-1.053-5.617-11.936-15.798-29.138-30.543-43.532-14.394-14.745-33.702-26.681-51.255-33.001 1.053 0.351 2.457 1.053 1.755 1.756-15.447-5.968-30.192-9.479-44.234-10.883-37.915-5.968-77.585 2.106-108.128 21.766 0.351 0.702 0.351 1.053-0.702 1.755-11.234 7.021-27.032 19.309-39.671 35.458-12.638 16.149-22.468 36.511-26.681 54.766 0.351-1.053 0.702-2.809 1.405-2.107-9.128 36.16-6.67 67.053 5.968 93.735 0.702-0.702-1.755-4.213 0.351-3.862 1.404 3.862 3.16 8.075 5.266 11.936 2.457 5.617 5.266 12.989 9.128 14.745-9.83-19.309-16.5-41.426-17.203-61.085 1.404 2.809 1.053 8.777 3.16 11.234 0.702-13.34-2.457-31.245 2.106-43.883-1.053 6.67-1.755 15.798-1.053 24.925 0 6.67 3.16 25.277 5.266 27.032-0.351-0.351-0.351-2.106 0-2.106 1.053 2.106-1.404 3.16 0.351 3.511 0-0.702 0.351-0.702 0.702-0.703 3.511 7.723 8.075 19.66 11.585 25.628 4.213 7.723 9.83 14.745 16.149 21.064 0 0.351 0.351 0.351 0.352 0.702 0.702 1.755 3.16 3.862 3.861 5.266 0.351 0.702-0.351 1.755 0 2.458 5.266 9.83 12.989 19.66 22.468 27.383 5.968 7.021 15.447 14.394 27.032 20.713 11.234 5.968 24.223 10.883 36.16 13.691 8.426 2.106 18.606 2.457 24.926 3.862 8.426 1.755 23.17-0.702 30.542-2.107 44.234-6.67 88.117-36.862 110.235-80.393 22.819-43.883 22.117-97.596 2.457-138.671" fill="#ff4057" fill-rule="nonzero" stroke="none" stroke-width="1" stroke-linecap="butt" stroke-linejoin="miter" stroke-miterlimit="10" stroke-dasharray="" stroke-dashoffset="0" font-family="none" font-weight="none" font-size="none" text-anchor="none" style="mix-blend-mode: normal" data-fill-palette-color="tertiary"></path></g><g transform="matrix(1,0,0,1,80,167.30620886283705)"><svg viewBox="0 0 160 25.387582274325908" height="25.387582274325908" width="160"><g><svg viewBox="0 0 160 25.387582274325908" height="25.387582274325908" width="160"><g><svg viewBox="0 0 160 25.387582274325908" height="25.387582274325908" width="160"><g><svg viewBox="0 0 160 25.387582274325908" height="25.387582274325908" width="160"><g id="textblocktransform"><svg viewBox="0 0 160 25.387582274325908" height="25.387582274325908" width="160" id="textblock"><g><svg viewBox="0 0 160 13.69284876905041" height="13.69284876905041" width="160"><g transform="matrix(1,0,0,1,0,0)"><svg width="160" viewBox="2.25 -35.75 426.4700012207031 36.5" height="13.69284876905041" data-palette-color="#ff4057"><path d="M19.25 0.75Q11.25 0.75 6.75-4 2.25-8.75 2.25-17.5L2.25-17.5Q2.25-23.25 4.23-27.38 6.2-31.5 9.78-33.63 13.35-35.75 18.05-35.75L18.05-35.75Q20.9-35.75 23.8-34.1L23.8-34.1Q24.9-33.5 26-32.5L26-32.5Q26.85-33.8 27.75-34.55L27.75-34.55Q28.65-35.2 28.75-35.25L28.75-35.25 30-35.25 30-25.75 28-25.75Q27.35-28.15 26.05-30.1L26.05-30.1Q24.85-32 23.08-33.25 21.3-34.5 19-34.5L19-34.5Q15.55-34.5 13.28-30.5 11-26.5 11-17.5L11-17.5Q11-8.35 13.48-4.42 15.95-0.5 20.25-0.5L20.25-0.5Q22.6-0.5 24.73-1.83 26.85-3.15 28.18-5.35 29.5-7.55 29.5-10L29.5-10 30.75-10Q30.75-7.15 29.23-4.67 27.7-2.2 25.08-0.73 22.45 0.75 19.25 0.75L19.25 0.75ZM35 0L35-0.75 38-1.5 38-33.5 35-34.25 35-35 48.25-35Q56.75-35 60.5-32.43 64.25-29.85 64.25-25.25L64.25-25.25Q64.25-22.15 62.6-20.23 60.95-18.3 58.35-17.35L58.35-17.35Q55.6-16.3 52.5-16.25L52.5-16.25 52.5-16Q54.35-15.9 55.75-15.45L55.75-15.45Q59.25-14.35 60.5-11.5L60.5-11.5 65-1.5 67.5-0.75 67.5 0 60.5 0Q56.4 0 54.5-4.25L54.5-4.25 49.5-15.5 46.25-15.5 46.25-1.5 49.75-0.75 49.75 0 35 0ZM46.25-16.75L48.25-16.75Q51.75-16.75 53.75-18.95 55.75-21.15 55.75-25.25L55.75-25.25Q55.75-29.35 53.75-31.55 51.75-33.75 48.25-33.75L48.25-33.75 46.25-33.75 46.25-16.75ZM75.75 0L75.75-0.75 78.75-1.5 78.75-13 68.5-33.5 66-34.25 66-35 72.25-35Q74.84-35 76.42-33.9 78-32.8 79-30.75L79-30.75 86.4-16 94-32.75 90.25-34.25 90.25-35 99.75-35 99.75-34.25 95.75-32.75 87-13.5 87-1.5 90-0.75 90 0 75.75 0ZM101.74 0L101.74-0.75 104.74-1.5 104.74-33.5 101.74-34.25 101.74-35 115.74-35Q124.04-35 127.64-32.27 131.24-29.55 131.24-24.25L131.24-24.25Q131.24-18.95 127.64-16.23 124.04-13.5 115.74-13.5L115.74-13.5 112.99-13.5 112.99-1.5 115.99-0.75 115.99 0 101.74 0ZM112.99-14.75L115.74-14.75Q118.89-14.75 120.82-17.15 122.74-19.55 122.74-24.25L122.74-24.25Q122.74-28.9 120.82-31.33 118.89-33.75 115.74-33.75L115.74-33.75 112.99-33.75 112.99-14.75ZM141.74 0L141.74-0.75 144.74-1.5 144.74-33.75 138.99-33.75Q138.99-30.7 137.34-27.9L137.34-27.9Q136.64-26.75 135.74-26L135.74-26 134.24-26 134.24-35 163.49-35 163.49-26 161.99-26Q161.04-26.75 160.34-27.9L160.34-27.9Q158.74-30.6 158.74-33.75L158.74-33.75 152.99-33.75 152.99-1.5 155.99-0.75 155.99 0 141.74 0ZM182.24 0.75Q177.34 0.75 173.66-1.38 169.99-3.5 167.99-7.6 165.99-11.7 165.99-17.5L165.99-17.5Q165.99-23.3 167.99-27.4 169.99-31.5 173.66-33.63 177.34-35.75 182.24-35.75L182.24-35.75Q187.14-35.75 190.81-33.63 194.49-31.5 196.49-27.4 198.49-23.3 198.49-17.5L198.49-17.5Q198.49-11.7 196.49-7.6 194.49-3.5 190.81-1.38 187.14 0.75 182.24 0.75L182.24 0.75ZM182.24-0.25Q184.19-0.25 185.86-1.9 187.54-3.55 188.64-7.4 189.74-11.25 189.74-17.5L189.74-17.5Q189.74-23.75 188.64-27.6 187.54-31.45 185.86-33.1 184.19-34.75 182.24-34.75L182.24-34.75Q180.29-34.75 178.61-33.1 176.94-31.45 175.84-27.6 174.74-23.75 174.74-17.5L174.74-17.5Q174.74-11.25 175.84-7.4 176.94-3.55 178.61-1.9 180.29-0.25 182.24-0.25L182.24-0.25ZM222.99 0.5L207.74-28.75 207.74-2.25 211.74-0.75 211.74 0 202.24 0 202.24-0.75 206.24-2.25 206.24-33.5 203.24-34.25 203.24-35 209.49-35Q212.09-35 213.61-33.93 215.14-32.85 216.24-30.75L216.24-30.75 227.14-9.9 235.49-30.75Q236.34-32.95 237.79-33.98 239.24-35 242.24-35L242.24-35 247.49-35 247.49-34.25 244.49-33.5 244.49-1.5 247.49-0.75 247.49 0 233.24 0 233.24-0.75 236.24-1.5 236.24-28.75 224.49 0.5 222.99 0.5ZM251.98 0L251.98-0.75 254.98-1.5 254.98-33.5 251.98-34.25 251.98-35 278.73-35 278.73-26 277.23-26Q276.28-26.75 275.58-27.9L275.58-27.9Q273.98-30.6 273.98-33.75L273.98-33.75 263.23-33.75 263.23-18 268.98-18Q269.33-19.9 270.28-21.55L270.28-21.55Q270.68-22.3 271.23-23L271.23-23 272.73-23 272.73-11.75 271.23-11.75Q270.68-12.45 270.28-13.2L270.28-13.2Q269.33-14.85 268.98-16.75L268.98-16.75 263.23-16.75 263.23-1.25 274.98-1.25Q274.98-4.4 276.58-7.1L276.58-7.1Q277.28-8.25 278.23-9L278.23-9 279.73-9 279.73 0 251.98 0ZM290.48 0L290.48-0.75 293.48-1.5 293.48-33.75 287.73-33.75Q287.73-30.7 286.08-27.9L286.08-27.9Q285.38-26.75 284.48-26L284.48-26 282.98-26 282.98-35 312.23-35 312.23-26 310.73-26Q309.78-26.75 309.08-27.9L309.08-27.9Q307.48-30.6 307.48-33.75L307.48-33.75 301.73-33.75 301.73-1.5 304.73-0.75 304.73 0 290.48 0ZM315.98 0L315.98-0.75 318.98-1.5 318.98-33.5 315.98-34.25 315.98-35 329.23-35Q337.73-35 341.48-32.43 345.23-29.85 345.23-25.25L345.23-25.25Q345.23-22.15 343.58-20.23 341.93-18.3 339.33-17.35L339.33-17.35Q336.58-16.3 333.48-16.25L333.48-16.25 333.48-16Q335.33-15.9 336.73-15.45L336.73-15.45Q340.23-14.35 341.48-11.5L341.48-11.5 345.98-1.5 348.48-0.75 348.48 0 341.48 0Q337.38 0 335.48-4.25L335.48-4.25 330.48-15.5 327.23-15.5 327.23-1.5 330.73-0.75 330.73 0 315.98 0ZM327.23-16.75L329.23-16.75Q332.73-16.75 334.73-18.95 336.73-21.15 336.73-25.25L336.73-25.25Q336.73-29.35 334.73-31.55 332.73-33.75 329.23-33.75L329.23-33.75 327.23-33.75 327.23-16.75ZM365.23 0L350.98 0 350.98-0.75 353.98-1.5 353.98-33.5 350.98-34.25 350.98-35 365.23-35 365.23-34.25 362.23-33.5 362.23-1.5 365.23-0.75 365.23 0ZM386.97 0.75Q378.97 0.75 374.47-4 369.97-8.75 369.97-17.5L369.97-17.5Q369.97-23.25 371.95-27.38 373.92-31.5 377.5-33.63 381.07-35.75 385.77-35.75L385.77-35.75Q388.62-35.75 391.52-34.1L391.52-34.1Q392.62-33.5 393.72-32.5L393.72-32.5Q394.57-33.8 395.47-34.55L395.47-34.55Q396.37-35.2 396.47-35.25L396.47-35.25 397.72-35.25 397.72-25.75 395.72-25.75Q395.07-28.15 393.77-30.1L393.77-30.1Q392.57-32 390.8-33.25 389.02-34.5 386.72-34.5L386.72-34.5Q383.27-34.5 381-30.5 378.72-26.5 378.72-17.5L378.72-17.5Q378.72-8.35 381.2-4.42 383.67-0.5 387.97-0.5L387.97-0.5Q390.32-0.5 392.45-1.83 394.57-3.15 395.9-5.35 397.22-7.55 397.22-10L397.22-10 398.47-10Q398.47-7.15 396.95-4.67 395.42-2.2 392.8-0.73 390.17 0.75 386.97 0.75L386.97 0.75ZM414.97 0.75Q411.42 0.75 408.32-0.85L408.32-0.85Q406.92-1.55 405.97-2.5L405.97-2.5Q405.27-1.35 404.22-0.45L404.22-0.45Q403.32 0.2 403.22 0.25L403.22 0.25 401.97 0.25 401.97-9.25 403.97-9.25Q404.72-6.8 406.07-4.85L406.07-4.85Q409.12-0.5 413.97-0.5L413.97-0.5Q416.82-0.5 418.52-2.2 420.22-3.9 420.22-6.75L420.22-6.75Q420.22-8.4 419.25-9.7 418.27-11 416.82-12 415.37-13 412.77-14.5L412.77-14.5Q409.47-16.35 407.42-17.85 405.37-19.35 403.92-21.63 402.47-23.9 402.47-27L402.47-27Q402.47-29.45 403.85-31.43 405.22-33.4 407.97-34.58 410.72-35.75 414.72-35.75L414.72-35.75Q417.62-35.75 420.52-34.1L420.52-34.1Q421.62-33.5 422.72-32.5L422.72-32.5Q423.57-33.8 424.47-34.55L424.47-34.55Q425.37-35.2 425.47-35.25L425.47-35.25 426.72-35.25 426.72-25.75 424.72-25.75Q424.07-28.15 422.77-30.1L422.77-30.1Q421.57-32 419.8-33.25 418.02-34.5 415.72-34.5L415.72-34.5Q413.77-34.5 412.37-32.95 410.97-31.4 410.97-29L410.97-29Q410.97-27.15 412.05-25.68 413.12-24.2 414.7-23.1 416.27-22 418.97-20.45L418.97-20.45Q422.12-18.65 424.07-17.25 426.02-15.85 427.37-13.78 428.72-11.7 428.72-9L428.72-9Q428.72-6.3 427.17-4.08 425.62-1.85 422.52-0.55 419.42 0.75 414.97 0.75L414.97 0.75Z" opacity="1" transform="matrix(1,0,0,1,0,0)" fill="#ff4057" class="wordmark-text-0" data-fill-palette-color="primary" id="text-0"></path></svg></g></svg></g><g transform="matrix(1,0,0,1,0,16.925401735052755)"><svg viewBox="0 0 160 8.462180539273154" height="8.462180539273154" width="160"><g transform="matrix(1,0,0,1,0,0)"><svg width="160" viewBox="0.550000011920929 -37.70000076293945 942.5499877929688 49.849998474121094" height="8.462180539273154" data-palette-color="#dcdcdc"><path d="M3.85-35.6L3.85-35.6 23.35-35.6Q25.6-35.6 25.6-33.8L25.6-33.8Q25.6-32.9 24.95-32.25L24.95-32.25Q23.95-32.9 22.3-32.9L22.3-32.9 14.6-32.9 14.6-2.55Q14.6-1.45 15.75-1.05L15.75-1.05Q15 0.4 13.7 0.4L13.7 0.4Q11.4 0.4 11.4-2.45L11.4-2.45 11.4-32.9 2.75-32.9Q0.55-32.9 0.55-34.7L0.55-34.7Q0.55-35.65 1.2-36.2L1.2-36.2Q2.3-35.6 3.85-35.6ZM78.73-17.1L78.73-17.1 78.73-2.55Q78.73-1.4 79.93-1.05L79.93-1.05Q79.13 0.4 77.78 0.4L77.78 0.4Q75.58 0.4 75.58-2.45L75.58-2.45 75.58-17.05Q75.58-22.7 70.63-22.7L70.63-22.7Q67.93-22.7 65.5-20.53 63.08-18.35 62.13-14.85L62.13-14.85 62.13-2.55Q62.13-1.45 63.28-1.05L63.28-1.05Q62.48 0.4 61.18 0.4L61.18 0.4Q58.98 0.4 58.98-2.45L58.98-2.45 58.98-34.7Q58.98-35.8 57.83-36.3L57.83-36.3Q58.43-37.7 59.88-37.7L59.88-37.7Q62.13-37.7 62.13-34.9L62.13-34.9 62.13-19.3Q63.43-22 65.83-23.8 68.23-25.6 71.48-25.6 74.73-25.6 76.73-23.48 78.73-21.35 78.73-17.1ZM117.41-14.35L127.86-15.1Q129.96-15.25 129.96-17.57 129.96-19.9 128.56-21.48 127.16-23.05 124.96-23.05L124.96-23.05Q122.01-23.05 119.91-20.73 117.81-18.4 117.41-14.35L117.41-14.35ZM117.31-12.5Q117.26-7.35 119.53-4.85 121.81-2.35 125.83-2.35 129.86-2.35 132.51-4.85L132.51-4.85Q133.11-4.5 133.11-3.7L133.11-3.7Q133.11-2.25 130.83-0.93 128.56 0.4 125.41 0.4L125.41 0.4Q120.41 0.4 117.13-2.83 113.86-6.05 113.86-11.9 113.86-17.75 117.41-21.68 120.96-25.6 125.41-25.6L125.41-25.6Q128.96-25.6 131.16-23.13 133.36-20.65 133.36-17.45L133.36-17.45Q133.36-15.25 132.08-14.13 130.81-13 128.01-12.95L128.01-12.95 117.31-12.6 117.31-12.5ZM220.86-32.8L220.86-32.8 213.46-32.8 213.46-16.5 220.86-16.5Q225.21-16.5 227.46-18.75 229.71-21 229.71-24.63 229.71-28.25 227.46-30.53 225.21-32.8 220.86-32.8ZM213.01-35.6L213.01-35.6 220.71-35.6Q226.41-35.6 229.76-32.58 233.11-29.55 233.11-24.68 233.11-19.8 229.76-16.78 226.41-13.75 220.71-13.75L220.71-13.75 213.51-13.75 213.51-2.55Q213.51-1.4 214.66-1.05L214.66-1.05Q213.86 0.4 212.51 0.4L212.51 0.4Q210.31 0.4 210.31-2.45L210.31-2.45 210.31-32.3Q210.31-33.45 209.16-33.9L209.16-33.9Q210.21-35.6 213.01-35.6ZM288.29-22.75L288.29-22.75 288.29-2.55Q288.29-1.4 289.49-1.05L289.49-1.05Q288.69 0.4 287.34 0.4L287.34 0.4Q285.14 0.4 285.14-2.45L285.14-2.45 285.14-4.5Q282.29 0.4 276.74 0.4L276.74 0.4Q268.54 0.4 268.54-8.05L268.54-8.05 268.54-22.6Q268.54-23.75 267.39-24.15L267.39-24.15Q268.09-25.6 269.44-25.6L269.44-25.6Q271.69-25.6 271.69-22.75L271.69-22.75 271.69-8.2Q271.69-5.45 272.94-3.98 274.19-2.5 277.01-2.5 279.84-2.5 281.94-4.08 284.04-5.65 285.14-8.45L285.14-8.45 285.14-22.6Q285.14-23.75 283.99-24.15L283.99-24.15Q284.84-25.6 286.14-25.6L286.14-25.6Q288.29-25.6 288.29-22.75ZM328.87-34.9L328.87-34.9 328.87-2.55Q328.87-1.45 330.02-1.05L330.02-1.05Q329.22 0.4 327.92 0.4L327.92 0.4Q325.72 0.4 325.72-2.45L325.72-2.45 325.72-34.7Q325.72-35.8 324.57-36.3L324.57-36.3Q325.17-37.7 326.62-37.7L326.62-37.7Q328.87-37.7 328.87-34.9ZM383.09-20.75L383.09-20.75Q383.09-19.7 382.32-19.1 381.54-18.5 380.59-18.5 379.64-18.5 378.99-18.9L378.99-18.9Q379.29-19.4 379.29-20.4 379.29-21.4 378.04-22.33 376.79-23.25 374.24-23.25 371.69-23.25 370.22-22.13 368.74-21 368.74-19.53 368.74-18.05 370.24-16.9 371.74-15.75 373.89-14.8 376.04-13.85 378.19-12.78 380.34-11.7 381.84-10.1 383.34-8.5 383.34-6.55L383.34-6.55Q383.34-3.8 380.69-1.7 378.04 0.4 373.89 0.4 369.74 0.4 367.19-1.2 364.64-2.8 364.64-5.4L364.64-5.4Q364.64-6.9 365.42-7.7 366.19-8.5 367.14-8.5 368.09-8.5 368.69-7.9L368.69-7.9Q368.04-6.85 368.04-5.8L368.04-5.8Q368.04-4.05 369.49-3 370.94-1.95 373.77-1.95 376.59-1.95 378.29-3.18 379.99-4.4 379.99-6.18 379.99-7.95 378.52-9.18 377.04-10.4 374.92-11.3 372.79-12.2 370.67-13.13 368.54-14.05 367.07-15.5 365.59-16.95 365.59-18.85L365.59-18.85Q365.59-21.8 368.04-23.7 370.49-25.6 374.12-25.6 377.74-25.6 380.42-24.28 383.09-22.95 383.09-20.75ZM420.52-14.35L430.97-15.1Q433.07-15.25 433.07-17.57 433.07-19.9 431.67-21.48 430.27-23.05 428.07-23.05L428.07-23.05Q425.12-23.05 423.02-20.73 420.92-18.4 420.52-14.35L420.52-14.35ZM420.42-12.5Q420.37-7.35 422.65-4.85 424.92-2.35 428.95-2.35 432.97-2.35 435.62-4.85L435.62-4.85Q436.22-4.5 436.22-3.7L436.22-3.7Q436.22-2.25 433.95-0.93 431.67 0.4 428.52 0.4L428.52 0.4Q423.52 0.4 420.25-2.83 416.97-6.05 416.97-11.9 416.97-17.75 420.52-21.68 424.07-25.6 428.52-25.6L428.52-25.6Q432.07-25.6 434.27-23.13 436.47-20.65 436.47-17.45L436.47-17.45Q436.47-15.25 435.2-14.13 433.92-13 431.12-12.95L431.12-12.95 420.42-12.6 420.42-12.5ZM527.9-20.38Q525.43-23.05 521.7-23.05 517.98-23.05 515.83-20.6 513.68-18.15 513.68-13.45L513.68-13.45Q513.68-7.55 516.2-4.83 518.73-2.1 522.45-2.1 526.18-2.1 528.28-4.6 530.38-7.1 530.38-11.75L530.38-11.75Q530.38-17.7 527.9-20.38ZM513.85-22.2Q517.33-25.6 522.08-25.6 526.83-25.6 530.25-22.15 533.68-18.7 533.68-12.58 533.68-6.45 530.25-3.03 526.83 0.4 522.08 0.4 517.33 0.4 513.85-3.03 510.38-6.45 510.38-12.63 510.38-18.8 513.85-22.2ZM569.9-23L570.45-23 570.45-29.9Q570.45-33.75 572.48-35.73 574.5-37.7 577.38-37.7 580.25-37.7 581.93-36.52 583.6-35.35 583.6-33.8L583.6-33.8Q583.6-33.05 583-32.65L583-32.65Q580.85-35.15 577.95-35.15L577.95-35.15Q576-35.15 574.83-33.93 573.65-32.7 573.65-30.25L573.65-30.25 573.65-23 582-23Q582.25-22.7 582.25-22.15L582.25-22.15Q582.25-20.2 574.35-20.2L574.35-20.2 573.65-20.2 573.65 6.85Q573.65 9.45 572.58 10.8 571.5 12.15 569.63 12.15 567.75 12.15 566.65 10.1L566.65 10.1Q568.75 10.1 569.6 9.15 570.45 8.2 570.45 6L570.45 6 570.45-20.25Q566.05-20.45 566.05-22L566.05-22Q566.05-22.65 566.55-23.25L566.55-23.25Q567.55-23 569.9-23L569.9-23ZM679.76-30.35L679.76-30.35Q679.76-29.35 679.16-28.75 678.56-28.15 677.68-28.15 676.81-28.15 676.41-28.3L676.41-28.3Q676.46-28.55 676.46-28.75L676.46-28.75Q676.46-30.4 674.71-31.73 672.96-33.05 669.46-33.05L669.46-33.05Q664.61-33.05 660.93-29.08 657.26-25.1 657.26-17.85 657.26-10.6 660.46-6.58 663.66-2.55 669.36-2.55L669.36-2.55Q672.31-2.55 674.83-3.7 677.36-4.85 678.96-6.45L678.96-6.45Q679.76-6.35 679.76-5.25L679.76-5.25Q679.76-3.65 676.41-1.63 673.06 0.4 668.46 0.4L668.46 0.4Q662.16 0.4 657.91-4.38 653.66-9.15 653.66-17.3 653.66-25.45 658.53-30.73 663.41-36 670.36-36L670.36-36Q674.41-36 677.08-34.33 679.76-32.65 679.76-30.35ZM719.39-22.75L719.39-22.75 719.39-20.2Q720.39-22.8 722.24-24.2 724.09-25.6 726.46-25.6 728.84-25.6 730.06-24.48 731.29-23.35 731.29-21.98 731.29-20.6 730.59-19.93 729.89-19.25 729.14-19.25 728.39-19.25 727.79-19.45L727.79-19.45Q727.89-19.95 727.89-20.8L727.89-20.8Q727.89-23.25 725.39-23.25L725.39-23.25Q723.64-23.25 721.86-21.48 720.09-19.7 719.39-15.95L719.39-15.95 719.39-2.55Q719.39-1.45 720.54-1.05L720.54-1.05Q719.74 0.4 718.44 0.4L718.44 0.4Q716.24 0.4 716.24-2.45L716.24-2.45 716.24-22.6Q716.24-23.75 715.09-24.15L715.09-24.15Q715.79-25.6 717.14-25.6L717.14-25.6Q719.39-25.6 719.39-22.75ZM773.41-1.6L780.81-21.6Q781.11-22.4 781.11-23.28 781.11-24.15 780.41-24.9L780.41-24.9Q781.36-25.6 782.51-25.6 783.66-25.6 784.31-24.5L784.31-24.5Q784.66-23.95 784.66-23.18 784.66-22.4 784.31-21.4L784.31-21.4 773.66 6Q771.21 12.15 767.31 12.15L767.31 12.15Q765.91 12.15 765.19 11.48 764.46 10.8 764.46 9.7 764.46 8.6 765.21 8L765.21 8Q765.96 8.95 767.31 8.95 768.66 8.95 769.36 8.25 770.06 7.55 770.76 5.6L770.76 5.6 772.66 0.4Q772.56 0.4 772.51 0.4L772.51 0.4Q770.91 0.4 770.31-1.35L770.31-1.35 762.86-22.6Q762.41-24.1 761.46-24.5L761.46-24.5Q762.01-25.6 763.51-25.6L763.51-25.6Q765.16-25.6 766.01-23L766.01-23 773.41-1.6ZM828.19-2.65L828.19-2.65Q831.54-2.65 833.82-5.33 836.09-8 836.09-12.63 836.09-17.25 833.82-19.95 831.54-22.65 828.19-22.65L828.19-22.65Q823.54-22.65 821.19-18.35L821.19-18.35 821.19-6.5Q822.54-4.35 824.19-3.5 825.84-2.65 828.19-2.65ZM821.19-22.75L821.19-22.75 821.19-22Q823.84-25.6 828.34-25.6 832.84-25.6 836.14-22.2 839.44-18.8 839.44-12.63 839.44-6.45 836.12-3.05 832.79 0.35 828.32 0.35 823.84 0.35 821.19-2.85L821.19-2.85 821.19 9.15Q821.19 10.3 822.34 10.7L822.34 10.7Q821.54 12.15 820.24 12.15L820.24 12.15Q818.04 12.15 818.04 9.25L818.04 9.25 818.04-22.6Q818.04-23.75 816.89-24.15L816.89-24.15Q817.59-25.6 818.94-25.6L818.94-25.6Q821.19-25.6 821.19-22.75ZM878.57-22.4L877.82-22.4 877.82-5.95Q877.82-4.05 878.57-3.25 879.32-2.45 881.07-2.45L881.07-2.45Q884.32-2.45 887.17-5.1L887.17-5.1Q887.82-4.6 887.82-3.85L887.82-3.85Q887.82-2.25 885.72-0.93 883.62 0.4 880.42 0.4L880.42 0.4Q874.62 0.4 874.62-6L874.62-6 874.62-22.4Q870.42-22.55 870.42-24.2L870.42-24.2Q870.42-24.95 870.92-25.4L870.92-25.4Q872.52-25.15 873.67-25.15L873.67-25.15 874.62-25.15 874.62-29.85Q874.62-30.95 873.47-31.45L873.47-31.45Q874.22-32.85 875.57-32.85L875.57-32.85Q877.82-32.85 877.82-30L877.82-30 877.82-25.15 886.42-25.15Q886.62-24.8 886.62-24.35L886.62-24.35Q886.62-22.4 878.57-22.4L878.57-22.4ZM937.32-20.38Q934.85-23.05 931.12-23.05 927.4-23.05 925.25-20.6 923.1-18.15 923.1-13.45L923.1-13.45Q923.1-7.55 925.62-4.83 928.15-2.1 931.87-2.1 935.6-2.1 937.7-4.6 939.8-7.1 939.8-11.75L939.8-11.75Q939.8-17.7 937.32-20.38ZM923.27-22.2Q926.75-25.6 931.5-25.6 936.25-25.6 939.67-22.15 943.1-18.7 943.1-12.58 943.1-6.45 939.67-3.03 936.25 0.4 931.5 0.4 926.75 0.4 923.27-3.03 919.8-6.45 919.8-12.63 919.8-18.8 923.27-22.2Z" opacity="1" transform="matrix(1,0,0,1,0,0)" fill="#dcdcdc" class="slogan-text-1" data-fill-palette-color="secondary" id="text-1"></path></svg></g></svg></g></svg></g></svg></g></svg></g></svg></g></svg></g></svg></g><defs></defs></svg><rect width="320" height="360" fill="none" stroke="none" visibility="hidden"></rect></g></svg></g></svg>